<?xml version="1.0" encoding="UTF-8"?>
<svg id="Layer_1" xmlns="http://www.w3.org/2000/svg" version="1.1" viewBox="0 0 96.54 190.49">
  <!-- Generator: Adobe Illustrator 29.7.1, SVG Export Plug-In . SVG Version: 2.1.1 Build 8)  -->
  <defs>
    <style>
      .st0 {
        fill: #fff;
      }
    </style>
  </defs>
  <g id="_ЭЛЕМЕНТЫ" data-name="ЭЛЕМЕНТЫ">
    <polygon class="st0" points="56.6 156.45 60.26 148.68 63.47 148.68 63.47 158.14 61.78 158.14 61.78 150.37 61.44 150.37 57.78 158.14 54.57 158.14 54.57 148.68 56.26 148.68 56.26 156.45 56.6 156.45 56.6 156.45"/>
    <path class="st0" d="M71.1,148.68h7.64v7.89h1.18v3.94h-1.52l-.17-2.32h-6.9l-.16,2.37h-1.52v-3.94h.94c.37-.06.66-.36.71-.73l.81-5.64-1-.17v-1.4ZM77.1,156.57v-6.54h-3.32l-1,6.54h4.32Z"/>
    <path class="st0" d="M83.3,155.25v2.94h-1.69v-9.46h4.34c1.81-.1,3.37,1.29,3.47,3.1.1,1.81-1.29,3.37-3.1,3.47-.12,0-.24,0-.36,0l-2.65-.05ZM85.95,153.61c.91-.07,1.59-.86,1.52-1.77-.06-.81-.71-1.45-1.52-1.52h-2.65v3.29h2.65Z"/>
    <path class="st0" d="M91.27,156.01c.64-.04,1.19.45,1.23,1.09,0,0,0,0,0,.01-.03.63-.57,1.11-1.19,1.08-.01,0-.02,0-.04,0-.62.03-1.15-.44-1.18-1.06,0,0,0-.01,0-.02.02-.63.55-1.12,1.18-1.1,0,0,0,0,0,0"/>
    <path class="st0" d="M41.9,128.58h-1.69v-9.46h1.69v3.77h1.84c.27,0,.48-.17.68-.59l.81-1.73c.37-.9,1.23-1.5,2.2-1.52l.51.17v1.52h-.51c-.27.04-.5.21-.61.46l-.88,1.92c-.09.19-.24.35-.42.46.32.21.58.49.76.83l.91,2c.19.36.42.56.68.56h.67v1.52l-.67.17c-.97-.02-1.84-.62-2.2-1.52l-.91-1.89c-.17-.43-.44-.66-.71-.66h-2.15v4h0Z"/>
    <polygon class="st0" points="58 119.12 58 128.58 56.31 128.58 56.31 124.58 51.54 124.58 51.54 128.58 49.85 128.58 49.85 119.12 51.54 119.12 51.54 122.96 56.31 122.96 56.31 119.12 58 119.12 58 119.12"/>
    <polygon class="st0" points="62.35 126.89 66.02 119.12 69.23 119.12 69.23 128.58 67.54 128.58 67.54 120.81 67.2 120.81 63.54 128.58 60.33 128.58 60.33 119.12 62.02 119.12 62.02 126.89 62.35 126.89 62.35 126.89"/>
    <polygon class="st0" points="78.21 119.12 78.21 120.72 73.08 120.72 73.08 128.58 71.39 128.58 71.39 119.12 78.21 119.12 78.21 119.12"/>
    <polygon class="st0" points="81.22 126.89 84.88 119.12 88.09 119.12 88.09 128.58 86.4 128.58 86.4 120.81 86.07 120.81 82.4 128.58 79.19 128.58 79.19 119.12 80.88 119.12 80.88 126.89 81.22 126.89 81.22 126.89"/>
    <path class="st0" d="M91.25,126.45c.9,0,1.26.61,1.26,1.4-.06,1.17-.62,2.27-1.54,3l-.44-.37c.45-.42.74-1,.79-1.62.01-.12-.01-.25-.07-.36-.79,0-1.18-.42-1.18-1,.04-.59.54-1.04,1.13-1,.02,0,.03,0,.05,0"/>
    <polygon class="st0" points="6.18 171.23 9.84 163.46 13.05 163.46 13.05 172.92 11.36 172.92 11.36 165.15 11.03 165.15 7.36 172.92 4.15 172.92 4.15 163.46 5.84 163.46 5.84 171.23 6.18 171.23 6.18 171.23"/>
    <path class="st0" d="M17.21,167.13h1.32c1.39,0,1.79-.51,1.79-1.07s-.59-1.24-1.93-1.24c-.68,0-1.34.2-1.91.56l-.22.82h-1.3v-2c1.01-.68,2.21-1.03,3.43-1,2.39,0,3.62,1.27,3.62,2.86.01.75-.36,1.46-1,1.87.86.38,1.42,1.21,1.47,2.15,0,1.87-1.54,3.1-4.06,3.1-1.53.03-3.01-.53-4.14-1.55l1.06-1.39c.79.86,1.91,1.34,3.08,1.3,1.17,0,2.37-.47,2.37-1.46,0-.83-.59-1.36-2.37-1.36h-1.2v-1.59h0Z"/>
    <polygon class="st0" points="29.54 168 31.29 163.46 34.42 163.46 34.42 172.92 32.73 172.92 32.73 165.15 32.39 165.15 30.64 169.69 28.02 169.69 26.27 165.15 25.93 165.15 25.93 172.92 24.33 172.92 24.33 163.46 27.45 163.46 29.2 168 29.54 168 29.54 168"/>
    <polygon class="st0" points="43.27 163.46 43.27 165.06 38.13 165.06 38.13 167.29 42.43 167.29 42.43 168.91 38.13 168.91 38.13 171.32 43.66 171.32 43.66 172.92 36.44 172.92 36.44 163.46 43.27 163.46 43.27 163.46"/>
    <path class="st0" d="M47.03,170.03v2.89h-1.68v-9.46h4.34c1.81-.1,3.37,1.29,3.47,3.1.1,1.81-1.29,3.37-3.1,3.47-.12,0-.24,0-.36,0h-2.66ZM49.68,168.39c.91-.07,1.59-.86,1.52-1.77-.06-.81-.71-1.45-1.52-1.52h-2.65v3.29h2.65Z"/>
    <polygon class="st0" points="61.51 163.46 61.51 165.06 56.37 165.06 56.37 167.29 60.66 167.29 60.66 168.91 56.37 168.91 56.37 171.32 61.9 171.32 61.9 172.92 54.68 172.92 54.68 163.46 61.51 163.46 61.51 163.46"/>
    <polygon class="st0" points="71.73 163.46 71.73 172.92 70.05 172.92 70.05 168.91 65.28 168.91 65.28 172.92 63.59 172.92 63.59 163.46 65.28 163.46 65.28 167.29 70.05 167.29 70.05 163.46 71.73 163.46 71.73 163.46"/>
    <polygon class="st0" points="75.79 171.23 79.46 163.46 82.67 163.46 82.67 172.92 80.98 172.92 80.98 165.15 80.64 165.15 76.97 172.92 73.76 172.92 73.76 163.46 75.45 163.46 75.45 171.23 75.79 171.23 75.79 171.23"/>
    <path class="st0" d="M90.82,170.03h-2.56l-.69,1.44c-.36.9-1.23,1.5-2.2,1.52l-.67-.17v-1.52h.67c.32-.04.58-.26.68-.56l.42-.93c-1.7-.64-2.55-2.53-1.92-4.22.49-1.29,1.73-2.14,3.11-2.13h4.84v9.46h-1.68v-2.89h0ZM90.82,168.39v-3.29h-3.16c-.91.07-1.59.86-1.52,1.77.06.81.71,1.45,1.52,1.52h3.16Z"/>
    <path class="st0" d="M54.08,143.36h-1.69v-9.46h1.69v3.77h1.84c.27,0,.47-.17.68-.6l.81-1.72c.36-.9,1.22-1.5,2.19-1.52l.51.17v1.52h-.51c-.27.03-.5.21-.6.46l-.88,1.92c-.1.19-.25.35-.43.46.33.2.59.49.77.83l.91,2c.18.36.42.56.67.56h.68v1.52l-.68.17c-.97-.02-1.83-.62-2.19-1.52l-.92-1.89c-.17-.43-.44-.66-.71-.66h-2.14v4h0Z"/>
    <path class="st0" d="M75.31,141.82c-1.86,0-3.37-1.51-3.37-3.37s1.51-3.37,3.37-3.37h2v-1.18h1.72v1.18h2c1.86,0,3.37,1.51,3.37,3.37s-1.51,3.37-3.37,3.37h-2v1.54h-1.7v-1.54h-2.02ZM77.31,140.18v-3.46h-2c-.96,0-1.73.77-1.73,1.73s.77,1.73,1.73,1.73h2ZM80.98,140.18c.96,0,1.73-.77,1.73-1.73s-.77-1.73-1.73-1.73h-1.95v3.47h1.95Z"/>
    <polygon class="st0" points="92.12 133.9 92.12 135.5 86.98 135.5 86.98 137.73 91.27 137.73 91.27 139.36 86.98 139.36 86.98 141.76 92.5 141.76 92.5 143.36 85.29 143.36 85.29 133.9 92.12 133.9 92.12 133.9"/>
    <path class="st0" d="M62.9,138.63c-.02,1.85,1.47,3.36,3.32,3.38,1.85.02,3.36-1.47,3.38-3.32s-1.47-3.36-3.32-3.38c-.01,0-.03,0-.04,0-1.83.01-3.32,1.49-3.34,3.32M71.26,138.63c0,2.76-2.24,5-5,5s-5-2.24-5-5,2.24-5,5-5c2.74.04,4.96,2.26,5,5"/>
    <polygon class="st0" points="92.51 109.25 73.08 109.25 73.08 107.63 92.51 107.63 92.51 109.25 92.51 109.25"/>
    <polygon class="st0" points="24.17 186.3 4.74 186.3 4.74 184.68 24.17 184.68 24.17 186.3 24.17 186.3"/>
    <path class="st0" d="M92.37,92.53H4.03V4.19h88.34v88.34ZM38.77,66.7c.45,0,.82-.37.82-.82s-.37-.82-.82-.82-.82.37-.82.82h0c0,.45.37.82.82.82M20.7,75.5c.45,0,.82-.37.82-.82s-.37-.82-.82-.82-.82.37-.82.82h0c0,.45.35.81.8.82,0,0,.01,0,.02,0M17.03,70.83c.45,0,.82-.37.82-.82s-.37-.82-.82-.82c-.45,0-.82.37-.82.82,0,0,0,0,0,0,0,.45.37.81.82.81M80.35,57.26c.45,0,.82-.37.82-.82s-.37-.82-.82-.82-.82.37-.82.82h0c0,.45.37.82.82.82M53.1,55.68c.45,0,.81-.37.81-.82-.05-.45-.46-.77-.91-.72-.38.04-.68.34-.72.72,0,.45.37.82.82.82M48.1,51.53c.45,0,.82-.37.82-.82,0-.45-.37-.81-.82-.81-.45,0-.81.36-.81.81h0c0,.45.36.81.81.82M66.73,32.93c.45,0,.82-.37.82-.82,0-.45-.37-.82-.82-.82-.45,0-.82.37-.82.82,0,.45.37.82.82.82M16.56,17.93c.45,0,.81-.36.81-.81h0c0-.45-.36-.81-.81-.82-.45,0-.82.37-.82.82,0,.45.37.81.82.81M56.19,86.93c.45,0,.82-.37.82-.82s-.37-.82-.82-.82-.82.37-.82.82h0c0,.45.37.82.82.82M25.54,38.31h-.69c-.58,0-1.14-.23-1.56-.64-.42-.42-.65-1-.65-1.59v-4.77h-.94v4.77c.01.59-.22,1.17-.65,1.58-.41.42-.97.65-1.56.65h-4.77v.88h4.79c.59,0,1.15.23,1.56.65.42.42.65.99.65,1.58v4.77h.94v-4.79c-.01-.59.22-1.17.65-1.58.41-.41.96-.63,1.54-.63h4.77v-.94h-4.1M47.11,72.02h-.93c-.59,0-1.15-.23-1.57-.65-.42-.42-.65-.99-.64-1.58v-4.77h-.94v4.76c.01,1.21-.96,2.21-2.18,2.22-.01,0-.02,0-.03,0h-4.71v.94h4.78c.59,0,1.15.24,1.56.65.43.42.66.99.65,1.59v4.77h.93v-4.77c0-.59.23-1.16.65-1.58.41-.42.97-.65,1.56-.65h4.77v-.96h-3.85M84.27,25.53h-4.59c-.59,0-1.16-.23-1.58-.65-.42-.42-.65-.99-.64-1.58v-4.77h-.94v4.77c0,.59-.23,1.16-.65,1.58-.42.41-.98.64-1.56.64h-4.72v.94h4.79c.59,0,1.15.23,1.56.65.42.42.66.99.65,1.58v4.78h.94v-4.77c0-.59.23-1.17.65-1.59.42-.41.98-.64,1.56-.64h4.77v-.93h-.24ZM48.65,16.73v.07-.07c-1.25,0-2.27-1.03-2.26-2.28h0v-.72h-.78v.72c.01,1.24-.99,2.26-2.23,2.27,0,0-.01,0-.02,0h-.75v.77h.73c.6-.01,1.19.23,1.61.66.43.43.66,1.01.66,1.62v.72h.78v-.72c0-.59.23-1.16.64-1.58.42-.42.99-.66,1.59-.66h.75v-.78h-.72M32.82,28.58h-.4c-1.24,0-2.25-1.01-2.25-2.25,0-.01,0-.02,0-.03v-.72h-.77v.72c0,.6-.23,1.18-.66,1.61-.42.42-.99.66-1.59.66h-.75v.78h.74c.6,0,1.17.24,1.59.67.43.42.67,1,.66,1.61v.72h.78v-.72c0-1.25,1.01-2.26,2.26-2.27h.74v-.78h-.34M65.64,63.19c-.41-.44-.63-1.02-.61-1.62v-.73h-.77v.72c.02,1.24-.98,2.26-2.22,2.28-.01,0-.02,0-.03,0h-.75v.78h.74c1.24,0,2.25,1.01,2.25,2.25,0,0,0,.01,0,.02v.72h.78v-.72c-.01-1.24.99-2.26,2.23-2.27,0,0,.01,0,.02,0h.74v-.78h-.79c-.59,0-1.17-.23-1.59-.65M75.03,77.13c-1.24,0-2.25-1.01-2.25-2.25,0-.01,0-.02,0-.03v-.72h-.75v.72c0,.61-.24,1.19-.67,1.61-.42.43-.99.67-1.59.66h-.74v.78h.72c1.24-.02,2.26.98,2.28,2.22,0,.02,0,.05,0,.07v.72h.77v-.72c-.02-1.24.97-2.27,2.21-2.29,0,0,.01,0,.02,0h.74v-.78h-.74Z"/>
  </g>
</svg>