<?xml version="1.0" encoding="UTF-8"?>
<svg id="Layer_1" xmlns="http://www.w3.org/2000/svg" version="1.1" viewBox="0 0 97.52 133">
  <!-- Generator: Adobe Illustrator 29.7.1, SVG Export Plug-In . SVG Version: 2.1.1 Build 8)  -->
  <defs>
    <style>
      .st0 {
        fill: #fff;
      }
    </style>
  </defs>
  <path class="st0" d="M7.67,91.23c3.37.28,7.31-.37,10.62,0,1.09.12,1.13.9,1.92-.01l21.84.02v10.61c0,1.1-2.19.57-2.19,0v-4.27c0-.38-4.02-.16-4.51-.25-.39-.07-.65-.47-.98-.48s-.86.43-1.46.5c-4.08.46-9.01-.35-13.19-.02-.24.02-1.33.19-1.33.26v5.85s.58.24.61.24h13.05c-.07.59.28,1.94-.4,2.16l-10.45-.08c-.55.18-2.52.02-2.78.39-.1.14-.24,2.83-.03,3.26.14.7-.44,2.81.61,2.81h20.48s.37-.34.37-.37v-4.15c0-.49,1.7-.96,2.09-.38.18.27.18,1.95.08,2.3-.15.5-.69.24-.95.52.14.21.97.88.97.98v6.83c0,.78-1.03-.05-1.1-.05-.16,0-.59.55-.96.43h-15.87c-.85-.16-.53-.62-.36-1.23-.82-.19-.35.53-.49.73-.04.07-.69.05-.87-.24-.07-.12.43-1.74-.23-1.71-.07,0-.57.46-.51.74.06.24.63.93.38,1.21s-.91-.82-.96-.86c-.83-.65-1.95,1.35-2.09,1.35H7.67v-6.1h8.53c.47,0,.24-8.55.24-9.39,0-1,.05-1.59,0-2.68-.02-.51.11-2.34-.03-2.53-.45-.66-7.27,0-7.53-.27-.04-.04.5-.72-.12-.97-1.19-.24-.29.92-.36.97-.08.06-.53-.03-.73,0v-6.1ZM28.4,92.2c-.24-.25-.98.47-.73.73s.98-.47.73-.73ZM24.99,92.69c-.27-.27-.75.22-.49.49s.75-.22.49-.49ZM22.06,93.18c-.07-.06-1.64-.31-1.71-.24-.28.26.85,1.03.73,1.46.33.4,1.11-1.09.97-1.22ZM23.4,92.93v.24c.16-.08.16-.16,0-.24ZM17.67,93.91c-.34-.18-.65.16-.49.24.34.18.65-.16.49-.24ZM25.11,95.62v.24c.16-.08.16-.16,0-.24ZM26.94,103.91c-.19-.2-1.59.66-1.95.61l1.95.37c-.04-.24.06-.91,0-.97ZM20.84,114.4c-.34-.18-.65.16-.49.24.34.18.65-.16.49-.24ZM39.86,114.88c.18-.34-.16-.65-.24-.49-.18.34.16.65.24.49ZM15.48,115.37s-.52-.09-.49.12c.38.66.76.17.49-.12ZM40.59,116.1c-.27-.27-.75.22-.49.49s.75-.22.49-.49ZM15.48,116.59c-.27-.27-.75.22-.49.49s.75-.22.49-.49ZM13.28,117.32c.18-.34-.16-.65-.24-.49-.18.34.16.65.24.49ZM16.57,116.83v.24c.16-.08.16-.16,0-.24Z"/>
  <path class="st0" d="M43.76,56.6s.24.58.24.61v7.44c1.1-.28,4.34.73,5.01-.23.6-.86-.71-3.79.11-4.29.26-.16.96-.06.93-.73-.01-.35-1.05-.63-1.16-1.01s.4-1.26.23-1.79h9.75s0,22.68,0,22.68h-9.63c-.67,0-.12-1.64-.11-2.06.02-.63.07-6.47-.26-6.47h-4.88c-.52,0,.02,5.32,0,5.98-.03.85-.51,1.57,0,2.56h-10v-22.68c1.24.23,9.38-.31,9.75,0ZM51.81,64.16c-.27-.27-.75.22-.49.49s.75-.22.49-.49ZM35.84,64.65v.24c.16-.08.16-.16,0-.24ZM40.59,64.65c-.34-.18-.65.16-.49.24.34.18.65-.16.49-.24ZM36.2,67.09c.18-.34-.16-.65-.24-.49-.18.34.16.65.24.49ZM44.98,69.04c-.34-.18-.65.16-.49.24.34.18.65-.16.49-.24ZM37.42,70.5c.18-.34-.16-.65-.24-.49-.18.34.16.65.24.49ZM42.06,73.18c.24.24,1.11-.43.36-.73-.51-.21-.44.66-.36.73Z"/>
  <path class="st0" d="M83.27,49.77c.45-.48,1.48,1.62,1.59,1.95.68,2.08.62,5-.86,6.71-3.66,4.24-13.24.43-17.48,2.76-2.69,1.48-2.58,4.32-2.75,7-.02.33-.59,2.09.12,2.07.17,0,1.36-2.43,1.73-2.9,5.36-7,18.85-4.05,19.61,5.47.65,8.05-5.05,12.73-12.8,11.82-.32-.04-.53-.35-.73-.37-.81-.08-.96.19-2.07-.23-2.71-1.02-4.53-3.3-5.49-5.98-1.6-4.48-1.31-13.63.48-18.04,1.37-3.37,4.32-5.79,7.86-6.53,2.93-.61,6.83-.1,9.46-1.02,2.24-.79.98-2.31,1.33-2.69ZM83.51,52.21c-.51-.07-.55-.02-.49.49l.49-.49ZM82.78,54.4l-.49-.49c-.07.51-.02.55.49.49ZM73.94,63.96c-1.74.22-2,2.79-2.11,4.25-.28,3.44-.37,10.8.27,14.07.3,1.51,1.42,2.36,2.99,2.13,1.08-.16,1.52-3.33,1.59-4.28.25-3.47.34-10.82-.3-14.09-.25-1.26-1.04-2.26-2.44-2.08ZM79.49,76.84v.24c.16-.08.16-.16,0-.24Z"/>
  <path class="st0" d="M25.72,24.17c-.19-.45-.75-1.2-1.02-1.78-.21-.46-.77-2.61-1.3-2.61h-4.27v28.9c0,.62,1.97.18,2.45.48s.13,1.1-.13,1.1H6.82c-.43,0-.34-1.01-.09-1.19.34-.25,2.18.29,2.54-.26.28-.42.09-8.13.09-9.41,0-.82,0-1.6,0-2.42,0-1.05-.19-7.6.07-7.9.12-.14.56.16.43-.41-.05-.23-.44-.01-.5-.27-.12-.6-.09-3.44,0-4.13.06-.52.52-.96.47-1.16s-.38-.41-.45-.78c-.12-.63.2-1.87-.11-2.33-.41-.62-3.23.37-2.82-1.08.09-.32.55-.35.84-.38.66-.08,2.81-.11,3.42,0,.33.06-.17,1.02.62.75l.13-.75h16.1c.42-.17,1.08.58,1.08.87v8.9c0,.07-1.03.31-1.41-.06-.19-.19-1.01-2.3-1.22-2.8-.19-.44-.18-1.02-.3-1.29.07.07.94.15.73-.36-.36-.89-1.14-.05-.73.36ZM28.16,21c-.34-.18-.65.16-.49.24.34.18.65-.16.49-.24ZM15.03,24.14c-.24-.28.36-.99.2-1.19-.03-.03-.65.26-.75.4-.19.29-.35,1.65-.23,1.79.29.33,1.54-.75,1.21-.97-.07-.05-.35.05-.43-.04ZM16.7,22.95c-.18-.18-.99-.11-.73.61.3.84,1.05-.29.73-.61ZM27.91,23.44c-.26-.25-.98.49-.73.73s.98-.49.73-.73ZM17.55,23.93v.24c.16-.08.16-.16,0-.24ZM16.94,24.9c-.39.15-1.69,2.46-.85,2.43,1.03-.03.91-1.69.85-2.43ZM18.16,25.39s-.89-.2-.73.36c.09.31.61,1.2.97,1.35-.11-.33-.16-1.56-.24-1.71ZM12.31,26.85s-.55.02-.8-.05c-.33-.1-1.48-.86-1.64-.07-.13.63.87.55.95.63.08.1.1,1.96.52,2.41.47-.13,1.1-2.83.97-2.92ZM14.14,26.61v.24c.16-.08.16-.16,0-.24ZM13.16,27.34v.24c.16-.08.16-.16,0-.24ZM17.67,27.83c-.41-.48-.48.47-.64.5-.49.09-1.47-.22-1.31.84.11.72.77-.07.85-.06.28,0,.89,1.32,1.1.07.04-.22.04-1.29,0-1.35ZM14.5,28.56c-.14-.15-1.67.24-1.22.73.06.06,1.68-.25,1.22-.73ZM10.84,29.29c-.15-.15-.97.11-.97.36,0,.58,1.44.1.97-.36ZM14.26,31.24l-.49-.49c-.07.51-.02.55.49.49ZM15.23,31.97s-1.18-.04-1.22,0c-.08.08.14,1.34.25,1.46.56.62,1.38-1.1.97-1.46ZM10.36,32.46c-.27-.27-.75.22-.49.49s.75-.22.49-.49ZM11.57,32.46c-.37-.37-1.04.73-.36.73.15,0,.51-.58.36-.73ZM15.97,32.46c-.18.18.1,1.08.61.97.81-.17-.33-1.25-.61-.97ZM13.77,32.95c-.29-.28-.78.11-.12.49.21.03.14-.47.12-.49ZM11.94,33.68v.24c.16-.08.16-.16,0-.24ZM14.14,34.41v.24c.16-.08.16-.16,0-.24ZM13.04,34.66s-.72-.1-.73.12c.38.69,1.1.26.73-.12ZM16.21,37.82c.28-.29-.11-.78-.49-.12-.03.21.47.14.49.12Z"/>
  <path class="st0" d="M48.15,85.25c.05-.18.4-.37.61-.37,3.62.47,9.74-1.63,11.22,2.93.16.48.68,3.47.6,3.76s-1.49.38-.96.87c.13.12.72-.29.97-.24v12.8c0,.35-.56,1.97-.76,2.41-1.39,3.04-2.97,1.99-5.46,2.35-.85.12-.52.85-.67,1.54-.04.2-.35.4-.35.54,0,.09.37.47.43.96.16,1.34-.3,7.67.09,8.2.21.29.94.16,1.08.62.11.37.09,3.27-.08,3.52-.12.18-.31.2-.5.23-.55.08-6.22.07-6.22-.25v-3.54c0-.38,1.13-.06,1.23-1.21.16-1.85-.22-3.63-.27-5.37-.14-5.45.19-10.93.27-16.34.05-3.08-.06-6.17-.04-9.24-.16-.61-1.19-.34-1.19-.4,0-.91-.18-3.09,0-3.78ZM55.96,86.11c-.37.37.73,1.04.73.36,0-.15-.58-.51-.73-.36ZM53.76,89.4v16.22c1.38.02,2.01.13,2.17-1.36.36-3.43.28-9.89.04-13.4-.03-.37-.05-1.01-.31-1.27-.32-.32-1.71-.85-1.89-.18ZM50.35,99.28c-.27-.27-.75.22-.49.49s.75-.22.49-.49ZM53.03,108.54s-.72-.1-.73.12c.38.69,1.1.26.73-.12ZM50.35,112.2c-.34-.18-.65.16-.49.24.34.18.65-.16.49-.24ZM50.1,118.78l-.49-.49c-.07.51-.02.55.49.49Z"/>
  <path class="st0" d="M26.94,77.82c.57.57-2.27,3.87-2.81,4.38-3.35,3.16-10.31,5.13-14.14,1.95-1.39-1.16-1.22-1.64-1.72-3.15-.09-.27-.45-.5-.55-.91-.79-3.39,1.37-8.37,3.98-10.56.63-.53,3.24-1.65,3.29-1.84.09-.39-.87-.8-1.18-1.25-4.83-6.95,6.19-16.65,12.41-10.94,2.67,2.45.93,9.14-2.76,7.63-1.06-.43.23-1.45.49-2.09.59-1.47,1.02-3.65-.68-4.55-1.94-1.03-3.82.74-4.67,2.38-1.21,2.34-1.01,6,1.14,7.73.3.25,1.58.8,1.58,1.1,0,.16-2.21,1.32-2.68,1.7-2.57,2.12-4.55,6.36-3.85,9.71.13.61,1.42,2.46,1.97,2.68.17.07,3.27-.03,3.69-.08,1.13-.15,2.77-.98,3.67-1.69.44-.35,2.32-2.68,2.81-2.19ZM24.25,55.63c.3-.36-.42-1.28-.73-.97-.46.46.64,1.08.73.97ZM24.74,56.6c.28-.29-.11-.78-.49-.12-.03.21.47.14.49.12ZM25.23,57.58c.18-.34-.16-.65-.24-.49-.18.34.16.65.24.49ZM25.69,57.84s-.68-.05-.71-.02c-.4.4.81.87.97.73.03-.02-.25-.68-.27-.71ZM18.16,82.21c-.14-.14-.73.21-.73.36,0,.24.79.52.97.36.03-.02-.22-.7-.24-.73ZM12.06,84.4c.24-.24-.43-1.11-.73-.36-.21.51.66.44.73.36Z"/>
  <path class="st0" d="M79.85,95.13c-.19.14-.93-.33-.73.49,1.31.05,1.64.85,1.72,2.06.3,4.81-4.12,7.49-7.73,9.61-.33.19-.84.21-1,.34-.24.19-1.25,2.58-1.26,3.02-.08,2.34,2.49,2.63,4.26,2.54.41-.02.84-.29,1.21-.25.44.04,1.24,1.07,1.53.09.05-.18-.19-.43.03-.71.44-.54,2.67-1.67,3.43-2.44.35-.36.34-.75.57-1.02.38-.44,1.9-.86,1.88-.19,0,.18-1.88,2.56-2.19,2.92-3.56,4.13-8.61,6.87-14.14,4.88-2.83-1.02-3.79-2.83-3.4-5.83.06-.49.94-2.83,1.32-2.82.08,0,1.05,1.01,1.34.73.21-.21-.36-.68-.44-.9-.42-1.29.23-.89.81-1.28.71-.48,1.3-1.47,2.32-1.83.4-.14,1.1-.08,1.18-.16.07-.06,0-.53.27-.82.51-.55,1.46-1.12,2.08-1.83.36-.42.46-.9.74-1.22.17-.19.61-.21.61-.39,0-.28-.89-2.9-1.02-2.99-.12-.08-2.42-.09-2.76-.03-1.27.22-1.68,2.07-3.05,1.46-.3.63-.48,2.81-.79,3.12-.32.32-1.5.43-1.9.18-.85-.52.25-.67.38-.84.05-.08-.03-1.24.35-1.8.5-.73.47-.61.93-1.56.25-.52,1.55-2.42,2-2.63.41-.19,1.07-.04,1.19-.15.1-.08-.05-.7.67-1.16,1.61-1.02,5.12-1.2,6.93-.65.34.1,3.31,1.63,2.67,2.08ZM78.15,95.37s-.7-.03-.73,0c-.64.65,1.37.65.73,0ZM72.78,96.11s-1.2-.19-.97.36c.26.65,1.34.01.97-.36ZM66.93,98.06c.09.11.79-.42.12-.73-.22,0-.14.7-.12.73ZM76.19,98.3s-.71-.03-.73,0c-.06.12.11.54-.04.68-.13.13-.6.02-.83.28-.07.08.1.72.13.74.17.13.78-.21,1.07-.19.15.01,1.17.73,1.12.07,0-.04-.43-.43-.54-.68-.14-.3-.15-.85-.19-.9ZM78.88,101.96c-.41-.41-1.25.37-.36.73.51.21.44-.66.36-.73ZM67.17,109.27c-.38-.37-.81.35-.12.73.22-.01.15-.7.12-.73Z"/>
  <path class="st0" d="M61.2,21c.07,0,.64-.54.84.14.36,1.21-2,2.09-2.64,2.94-2.58,4.88-5.3,9.68-7.88,14.56-1.58,2.98-3.04,6.78-4.87,9.52-1.16,1.74-3.24,2.53-5.06,1.24s-1.75-4.09.28-5.04c1.4-.65,2.86.97,2.62,2.37-.07.4-1.11,1.48.11,1.1.22-.07,2.22-2.65,1.8-3.23-2.39-4.27-4.42-8.73-6.74-13.03-.72-1.34-4.52-8.48-5.18-8.96s-1.44-.36-1.21-1.6h7.93c.21,0,.43.49.33.82-.14.45-1.06.88-1.14,1.29-.12.57,4.37,9.23,5.04,10.5.62.69,3.22,6.33,3.58,6.42.38.09.5-.32.66-.56,1.28-1.99,2.44-4.76,3.56-6.92,1.84-3.53,3.34-5.65,4.19-9.68.04-.21.51-.12.51-.3,0-.07-.24-.8-.27-.83-.18-.18-.78.42-1.34,0-.41-.3-.31-.74,0-.74,1.62,0,3.26.04,4.88,0ZM37.42,21.97c.18-.34-.16-.65-.24-.49-.18.34.16.65.24.49ZM37.91,22.95s-.72-.1-.73.12c.38.69,1.1.26.73-.12ZM58.64,24.17c-.34-.18-.65.16-.49.24.34.18.65-.16.49-.24ZM41.81,29.53c-.24-.24-1.11.43-.36.73.51.21.44-.66.36-.73ZM48.27,40.26v.24c.16-.08.16-.16,0-.24Z"/>
  <path class="st0" d="M77.41,28.31s.14,1.09.12,1.25c-.07.55-.61.93-.61,1.31,0,.17.42.05.49.29.1.34.22,1.49-.07,1.72-.19.15-.54-.09-.41.43.05.22.68-.01.49.49-.04.09-.84.9-.97.96-.26.12-1.01-.12-1.47.26-.58.47-.2,1.57.61,1.34.5-.15.31-1.14.37-1.22.02-.02.34.18.56.16.25-.02.51-.18.75-.18.13,0,.4.59.4.63v11.1h-6.71c-.17,0-.33-.4-.37-.61-.16-.86-.13-4.44-.01-5.38.06-.52.52-.96.47-1.16-.04-.18-.33-.36-.4-.59-.45-1.35.87-.42,1.14-1.2.05-.15.06-2.45,0-2.63-.31-1.13-.65.43-.71.47-.23.15-.49-.18-.49-.25v-7.19c.92.2,6.62-.27,6.83,0ZM74.49,31c.45-.37-1.25-1.16-1.46-.97-.4.36,1.13,1.25,1.46.97ZM73.02,34.41c.37-.37-.73-1.04-.73-.36,0,.15.58.51.73.36ZM75.22,33.93c-.23-.18-1.21-.47-.97.12.31.78,1.15.02.97-.12ZM75.34,36.85v.24c.16-.08.16-.16,0-.24ZM73.02,39.53c.1-.35,0-1.69-.61-1.46-.74.28.24,1.39.61,1.46ZM75.95,39.53s-.94-.03-.97,0c-.33.33.67,1.03.97.73.03-.03.03-.7,0-.73ZM71.81,40.51c-.39-.39-.7.46-.49.73.11.14.69-.53.49-.73Z"/>
  <path class="st0" d="M83.88,18.56c.59.16.12,1.1.11,1.57-.03,1.47.22,3.54.02,4.89-.04.26-.1.45-.36.55l-3.23-.37c-1.7.64-3.66-.18-5.43.18.05-.43.7-.46.86-.72.28-.45.31-1.95-.49-1.96-.27,0-.02.55-.13.72-.09.13-1.6-.09-1.7.02-.05.05-.05,1.12,0,1.3.06.28.73.24.74.65-.68-.12-4.7.17-4.88,0-.14-.13.43-.65.12-.73-.55.05-.61.63-1.22.73-.41.07-3.88.14-4.02,0-.18-.18-.09-4.81,0-5.21.06-.29.63.06.5-.52-.05-.23-.33-.05-.43-.17-.11-.13-.09-.89-.06-.93.08-.1.44.38.65.45.73.26.5-.46.71-.46,1.48,0,3.18.2,4.61.21.4,0,1.81-.44,2.07-.21.06.05.03,1-.12,1.22-.14.2-.85.42-.85.61,0,.23,1.67.71,1.95,1.1-.35-.59,1.31-1.66.98-1.95-.11-.09-1.11.09-1.22,0-.04-.03-.05-.97,0-.97h10.85ZM66.2,19.54c-.29-.28-.78.11-.12.49.21.03.14-.47.12-.49ZM69.61,20.51c.2-.2-.4-.91-.73-.97-.24.49.44,1.26.73.97ZM77.66,21.49c.13-.13,0-1.08-.37-1.22-.83-.33-.17,1.75.37,1.22ZM70.59,21c-.51-.5-1.82,1.2-1.46,1.7.05.07,1.64.56,1.7.49.2-.2-.41-.86-.45-1.15-.06-.35.3-.96.21-1.04ZM71.81,21c-.32-.32-1.45.43-.61.73.72.26.79-.55.61-.73ZM75.46,21.24c-.24-.24-1.11.43-.36.73.51.21.44-.66.36-.73ZM68.88,21.73s-.7-.03-.73,0c-.64.65,1.37.65.73,0ZM73.51,22.95c.05-.03.07-.67-.24-.86-.38-.23-.88-.13-1.3-.05-.92.18-.52.38-.72.96-.12.33-.79.98.17.91.2-.01.6-.29.63-.23.11.21-.28,1.08.61.73s-.12-1.03-.12-1.1c0-.36.88-.31.97-.37ZM77.29,22.22v.24c.16-.08.16-.16,0-.24ZM67.66,23.68c.42-.4-.6-1.66-.97-.12-.15.63.82.26.97.12ZM83.51,24.66c.29-.95-1-1.3-.73-.61.06.15.52.56.73.61ZM70.83,23.93c-.34-.18-.65.16-.49.24.34.18.65-.16.49-.24Z"/>
  <path class="st0" d="M85.29,117.74c-.48-.42-1.23-2.12-1.28-2.76-.27-3.41,4.23-5.4,6.7-3.03,2.09,2.02,1.01,6.27-1.94,6.59-1.05.11-2.66-.1-3.48-.81ZM89.61,111.96c-.53-.54-1.2,1.55-.37,1.22.45-.18.68-.9.37-1.22Z"/>
  <path class="st0" d="M12.31,7.83c.08.08-.25.8-.26,1.1-.05,1.28,1.17.75,1.18-.04,0-.42-.48-1.01-.43-1.06.21-.19.94.16,1.1.48.44.86-.43,1.22-.36,1.56.09.42,1.53,1,.22,1.97-.47.34-2.47.58-2.68.37-.19-.19.17-1.63.16-2.03s-.37-2.15-.16-2.36c.04-.04,1.18-.04,1.22,0ZM13.26,10.29s-.59-.15-.7-.16c-.8-.08-.59,1.76-.13,1.84.72.13,1.1-1.46.83-1.69Z"/>
  <path class="st0" d="M19.32,8.13c.87.9.72,3.92-1.03,4.11-2.17.23-2.6-1.14-2.32-3.05.23-1.56,2.36-2.07,3.34-1.05ZM18.6,8.37c-.1-.14-.78-.32-1.01-.26-1.56.38-1.05,4.93.89,3.64.6-.4.44-2.92.12-3.38Z"/>
  <path class="st0" d="M55.96,12.22c-.06.06-.55.02-.74-.11-.48-.33-.1-1.69-.23-1.84-.5-.55-1.23,1.83-1.59,1.95-1.41.46.14-1.49.13-1.83-.01-.46-1.03-1.06-.73-1.33.4-.37,1.72,1.25,2.19.73.11-.12-.11-1.84,0-1.95.15-.15.97.11.97.36,0,.59.14,3.88,0,4.02Z"/>
  <path class="st0" d="M68.15,11.98c-.47.02-.5.11-.49-.37,0-.67.32-1.21.25-1.92-.03-.28-.45-1.6-.63-1.62-.45-.07-1.67.15-1.77.65.35.82.06,1.76.32,2.55.16.5,1.2.87.87,1.21-.04.04-.95-.36-1.1-.48-1.76-1.3-.69-4.67,1.42-4.36s1.88,2.87,1.15,4.35Z"/>
  <path class="st0" d="M76.2,7.83s.94-.04.97,0c.2.23-.4,1.59.37,1.47.9-.14.6-1.49,1.58-1.46.1.63-.65.81-.86,1.22-.59,1.14,1.09,2.21,1.1,2.8,0,.21-.77.19-.93.08-.08-.06-.84-1.89-1.26-1.42-.11.12.11,1.58,0,1.71-.03.04-.97.05-.97,0,0-.63-.14-4.22,0-4.39Z"/>
  <path class="st0" d="M49.35,7.85c.19.13,1.64,4.2,1.48,4.37-.19.2-.74-.05-.95-.39-.13-.22-.22-.74-.3-.79-.11-.08-1.54-.08-1.65,0-.29.2.03,1.44-.76,1.19.1-1.3.91-2.44,1.34-3.67.08-.24.1-.68.13-.72.02-.03.63-.03.7.02ZM49.13,9.54c-.49-.48-1.34,1.4-.12.97.39-.14.29-.81.12-.97Z"/>
  <path class="st0" d="M83.5,7.84c.03.72,1.78,4.07,1.47,4.38-.66.68-.97-1.45-2.07-1.45s-.9,1.01-1.58,1.45l1.47-4.39h.72ZM83.27,9.54s-.7-.03-.73,0c-.11.11-.24,1.27.61.97.38-.13.31-.75.12-.97Z"/>
  <path class="st0" d="M27.43,7.83c.26.3-.6,2.79,1.31,2.16.94-.31-.27-2.89,1.13-2.04.26.15-.04,1.4-.01,1.96s.61,2.1-.11,2.3c-.93.26-.52-.48-.61-1.1-.14-1.03-1.27-.36-1.73-.71-.18-.14-.17-.54-.32-.79-.05-.09-.36-.07-.4-.24-.05-.22-.05-1.49,0-1.55.02-.03.71-.03.73,0Z"/>
  <path class="st0" d="M40.1,11.49c.72.62-2.14,1.28-3.04.24-1.55-1.79.82-5.6,3.04-3.53-.48.69-.64-.2-1.33-.14-1.54.15-1.93,3.84.23,3.69.3-.02.99-.35,1.1-.26Z"/>
  <path class="st0" d="M32.3,7.83s1.17-.04,1.22,0c.1.09-1.03,2.13.73,1.95.05.46-.63.13-.87.47-.15.21-.16,1.66-.1,1.73.22.24,1.6-.51,1.71-.12.16.56-.52.36-.85.36-.4,0-1.83.11-1.83-.36,0-.59-.14-3.88,0-4.02Z"/>
  <path class="st0" d="M7.19,8.44c-.17-.63-1.02-.08-1.46-.12.15-.56.65-.47,1.09-.5.3-.02,3.17,0,2.57.5-.14.12-1.46-.52-1.46.12v3.78s-.73.04-.73,0c0-.89.18-3.12,0-3.78Z"/>
  <path class="st0" d="M21.82,7.83s.94-.03.97,0c.13.13-.47,1.74-.24,1.95.14.12,1.71-.18,1.71.12,0,.24-1.16.21-1.41.42-.68.56.6,2.13-1.03,1.9.11-.63-.15-4.21,0-4.39Z"/>
  <path class="st0" d="M63.27,7.83c-.19.7-.68.25-1.22.24v4.15c-1.34.07-.73-.51-.72-1.33.01-.56.09-2.24-.13-2.58-.43-.67-1.54.6-1.35-.48h3.41Z"/>
  <path class="st0" d="M73.03,12.22c-.37-.63.49-1.85.45-2.03-.05-.2-.38-.41-.45-.78s-.05-1.08,0-1.46c.04-.32.97-.28,1,.73.02.69-.29,2.17-.39,3.03-.05.46-.16.56-.61.51Z"/>
  <path class="st0" d="M71.32,7.83c.05.06.06,1.2.07,1.52,0,.16.31.95-.19.92-.62-.05-.7-2.34-.61-2.44.03-.03.71-.03.73,0Z"/>
  <path class="st0" d="M24.74,9.29c-.3-.09-1.48-1.21-1.22-1.46.47-.44,1.58.8,1.22,1.46Z"/>
  <path class="st0" d="M45.23,7.83c.09.08-.96,1.17-1.22,1.22-.14-.53.75-1.61,1.22-1.22Z"/>
  <path class="st0" d="M54.25,7.83c.45.45-1.28,1.14-.97.37.13-.32.83-.52.97-.37Z"/>
  <path class="st0" d="M34.74,7.83c.37.38-.35.81-.73.12.01-.22.7-.15.73-.12Z"/>
  <path class="st0" d="M42.06,7.83s.94-.04.97,0c.1.12-.1,1.63,0,1.71.02.02.34-.25.61-.03.48.4.99,1.84,1.58,2.35-.33.02-.96-.3-1.21-.49-.48-.37-.31-.98-.98-.85-.07.34.09,1.6,0,1.71-.03.04-.97.05-.97,0,0-.63-.14-4.22,0-4.39Z"/>
</svg>